<?xml version="1.0" standalone="no"?>
<!DOCTYPE svg PUBLIC "-//W3C//DTD SVG 20010904//EN"
 "http://www.w3.org/TR/2001/REC-SVG-20010904/DTD/svg10.dtd">
<svg version="1.0" xmlns="http://www.w3.org/2000/svg"
 width="500.000000pt" height="500.000000pt" viewBox="0 0 500.000000 500.000000"
 preserveAspectRatio="xMidYMid meet">

<g transform="translate(0.000000,500.000000) scale(0.100000,-0.100000)"
fill="#000000" stroke="none">
<path d="M2311 4151 c87 -86 146 -191 109 -191 -5 0 -10 7 -10 15 0 8 -9 24
-21 36 -18 18 -28 20 -67 14 -72 -11 -149 -53 -198 -110 -41 -46 -55 -75 -36
-75 5 0 33 21 63 47 84 71 125 84 200 61 28 -8 39 -17 39 -30 0 -11 -34 -54
-75 -96 -79 -79 -94 -107 -76 -140 12 -22 34 -30 258 -92 128 -36 153 -46 162
-66 6 -14 23 -30 37 -36 24 -11 29 -9 60 24 38 42 70 62 78 49 3 -4 -3 -16
-14 -26 -31 -28 -24 -51 24 -85 47 -32 68 -54 41 -44 -8 4 -23 0 -32 -7 -17
-14 -63 -105 -63 -125 0 -16 61 -44 95 -44 14 0 39 -7 55 -15 24 -12 30 -22
30 -48 0 -18 14 -54 34 -87 62 -101 54 -145 -36 -191 -44 -22 -154 -49 -205
-49 -31 0 -31 1 -22 32 5 18 9 70 9 114 0 264 -195 475 -516 561 -85 23 -120
26 -252 27 l-154 1 -29 -33 c-26 -28 -29 -40 -29 -96 0 -98 46 -213 147 -367
126 -192 296 -259 660 -259 100 0 123 -3 123 -14 0 -21 -71 -123 -190 -274
-58 -73 -106 -138 -108 -145 -8 -32 261 314 296 380 23 46 32 54 62 58 169 27
236 50 276 98 34 41 29 85 -21 166 -29 47 -36 66 -31 88 14 58 12 66 -32 96
-37 25 -41 32 -35 55 17 63 10 75 -84 149 l-28 21 24 26 c25 26 23 56 -4 56
-8 0 -35 -18 -59 -40 -24 -22 -50 -40 -58 -40 -26 0 -41 27 -34 62 5 26 4 30
-6 20 -18 -18 -32 -16 -214 34 -224 61 -245 75 -75 48 39 -6 40 -6 47 31 4 25
21 51 50 80 l42 43 24 -25 c33 -35 90 -62 167 -79 36 -7 69 -14 72 -14 4 0 9
-9 12 -20 3 -11 19 -28 36 -37 17 -10 31 -24 31 -31 0 -7 5 -10 11 -6 6 3 9
19 6 34 l-6 27 92 -5 c51 -2 100 -9 109 -13 25 -13 48 -11 48 5 0 8 -8 16 -17
18 -12 2 -18 14 -18 39 -2 51 -49 126 -90 146 -29 14 -34 20 -28 41 4 16 -4
44 -22 83 -37 76 -43 70 -9 -9 25 -59 26 -63 10 -87 -20 -31 -42 -32 -51 -2
-4 12 -25 41 -47 64 -38 38 -40 45 -36 85 5 38 4 40 -5 15 -7 -16 -16 -26 -24
-23 -27 11 -11 -18 42 -73 55 -58 66 -85 43 -110 -11 -12 -9 -13 7 -6 50 20
72 17 104 -12 18 -15 36 -43 40 -63 4 -19 11 -45 15 -57 7 -22 6 -22 -26 -9
-18 8 -72 16 -121 18 -75 4 -91 8 -113 29 -32 29 -74 114 -74 149 0 14 -5 32
-10 40 -17 26 -11 -29 9 -87 12 -35 14 -56 8 -62 -13 -13 9 -41 34 -41 10 0
21 -4 24 -10 8 -14 -20 -12 -80 4 -101 26 -157 73 -199 166 -14 30 -25 47 -25
37 -1 -10 8 -35 19 -57 11 -22 20 -44 20 -50 0 -19 -40 -50 -64 -50 -13 0 -29
7 -36 15 -7 8 -20 15 -29 15 -11 0 -8 -7 13 -27 l29 -26 -84 -28 c-46 -15 -85
-26 -87 -24 -10 9 33 66 80 106 29 25 60 59 68 75 8 16 23 39 34 51 17 20 18
27 7 62 -14 48 -68 120 -137 184 -80 73 -70 55 17 -32z m81 -154 c11 -17 10
-47 -2 -47 -5 0 -30 5 -54 12 -58 15 -108 1 -175 -52 -53 -42 -65 -41 -30 4
59 74 231 130 261 83z m678 -274 c0 -23 -14 -31 -24 -15 -3 5 -8 29 -12 53
l-6 44 21 -30 c11 -16 21 -40 21 -52z m-660 -18 c0 -19 -5 -25 -22 -25 -13 0
-29 4 -37 9 -21 13 4 41 35 41 19 0 24 -5 24 -25z m-90 -5 c0 -5 -7 -10 -15
-10 -8 0 -15 5 -15 10 0 6 7 10 15 10 8 0 15 -4 15 -10z m683 -19 c10 -11 1
-13 -52 -8 -35 3 -68 11 -75 17 -8 9 3 11 52 8 34 -2 68 -10 75 -17z m-158
-11 c14 -16 15 -20 4 -20 -16 0 -39 19 -39 32 0 14 16 9 35 -12z m-750 -111
c207 -28 356 -92 468 -199 40 -37 87 -93 106 -124 62 -104 87 -246 60 -352
-15 -57 -22 -59 -213 -50 -169 7 -309 32 -390 69 -107 49 -200 161 -292 350
-73 151 -73 271 0 303 38 16 158 18 261 3z m803 -209 c-2 -8 -12 -16 -23 -18
-11 -2 -28 -11 -37 -20 -33 -28 -16 30 20 71 16 18 17 18 29 0 8 -10 12 -24
11 -33z m-8 -41 c0 -6 9 -18 20 -27 20 -16 18 -17 -39 -17 l-60 0 26 28 c27
28 53 36 53 16z m25 -59 l20 -9 -20 0 c-11 0 -29 4 -40 9 l-20 9 20 0 c11 0
29 -4 40 -9z m56 -7 c13 -16 12 -17 -3 -4 -10 7 -18 15 -18 17 0 8 8 3 21 -13z"/>
<path d="M2852 4123 c-7 -3 -17 -14 -23 -26 -12 -22 -11 -22 13 1 27 25 39 19
53 -26 4 -13 9 -22 11 -19 7 7 -17 65 -29 70 -7 2 -18 2 -25 0z"/>
<path d="M2696 4104 c-12 -11 -15 -33 -14 -82 l2 -67 3 67 c5 81 24 106 54 69
11 -13 19 -19 19 -14 0 10 -32 43 -43 43 -3 0 -13 -7 -21 -16z"/>
<path d="M3914 2272 c-4 -12 -18 -29 -33 -37 -20 -11 -22 -14 -8 -15 10 0 29
-11 42 -24 l23 -24 6 24 c3 12 15 26 26 29 26 8 26 25 1 25 -11 0 -27 10 -36
23 l-15 22 -6 -23z"/>
<path d="M1037 2024 c-4 -4 -7 -146 -7 -316 0 -265 2 -308 15 -308 12 0 15 25
17 148 l3 147 192 2 c214 2 245 9 286 67 33 46 32 148 -2 193 -46 61 -74 68
-296 71 -110 2 -204 0 -208 -4z m434 -49 c64 -34 87 -120 49 -182 -35 -58 -58
-63 -270 -63 l-190 0 0 130 0 130 190 0 c153 0 197 -3 221 -15z"/>
<path d="M1738 2024 c-5 -4 -8 -146 -8 -316 0 -265 2 -308 15 -308 12 0 15 25
17 148 l3 147 95 3 c52 1 104 0 116 -3 11 -2 76 -70 143 -150 86 -102 128
-145 143 -145 19 0 20 2 6 18 -138 161 -226 272 -221 275 5 3 29 5 55 5 77 2
123 34 154 107 20 49 12 108 -22 152 -47 62 -68 67 -289 71 -110 2 -203 0
-207 -4z m447 -65 c50 -44 63 -97 36 -152 -35 -72 -52 -77 -270 -77 l-191 0 0
130 0 130 195 0 194 0 36 -31z"/>
<path d="M2713 2018 c-13 -17 -263 -603 -263 -617 0 -19 19 -12 33 12 8 12 23
43 33 70 l19 47 190 -2 189 -3 25 -62 c17 -45 29 -63 42 -63 15 0 17 4 9 24
-26 68 -253 592 -259 599 -4 4 -12 2 -18 -5z m98 -257 c44 -100 79 -187 79
-192 0 -5 -71 -9 -165 -9 -125 0 -165 3 -165 13 0 23 155 377 164 374 5 -2 44
-85 87 -186z"/>
<path d="M3217 2024 c-4 -4 -7 -13 -7 -21 0 -10 28 -13 125 -13 l125 0 0 -295
c0 -288 0 -295 20 -295 20 0 20 7 20 295 l0 295 126 0 c114 0 125 2 122 18 -3
16 -25 17 -264 20 -143 1 -263 0 -267 -4z"/>
<path d="M3907 2024 c-4 -4 -7 -146 -7 -316 0 -302 0 -308 20 -308 20 0 20 5
18 312 -3 296 -7 336 -31 312z"/>
<path d="M3090 1415 c0 -8 7 -15 15 -15 8 0 15 7 15 15 0 8 -7 15 -15 15 -8 0
-15 -7 -15 -15z"/>
<path d="M978 1148 c-3 -61 -6 -73 -21 -76 -10 -2 -25 5 -32 15 -13 16 -14 16
-15 1 0 -29 37 -42 66 -23 21 14 24 23 24 80 0 90 -18 93 -22 3z"/>
<path d="M1164 1205 c-10 -8 -14 -14 -9 -15 15 0 40 18 34 24 -3 3 -14 -1 -25
-9z"/>
<path d="M1300 1210 c0 -5 5 -10 10 -10 6 0 10 5 10 10 0 6 -4 10 -10 10 -5 0
-10 -4 -10 -10z"/>
<path d="M2527 1213 c-11 -11 -8 -153 3 -153 6 0 10 13 10 29 0 25 5 30 35 35
25 5 39 15 48 33 10 22 8 28 -12 44 -23 19 -71 26 -84 12z m78 -43 c0 -21 -5
-26 -32 -28 -31 -3 -33 -1 -33 28 0 29 2 31 33 28 27 -2 32 -7 32 -28z"/>
<path d="M3558 1209 c-22 -12 -24 -62 -3 -79 8 -7 29 -10 45 -8 26 4 31 2 28
-15 -5 -31 -34 -45 -59 -29 -30 19 -36 7 -6 -13 45 -29 87 10 87 79 0 59 -47
92 -92 65z m69 -25 c14 -38 -41 -71 -66 -40 -7 8 -10 24 -6 36 8 25 62 28 72
4z"/>
<path d="M3768 1209 c-10 -5 -18 -17 -18 -26 0 -14 4 -13 20 5 17 18 25 20 40
12 30 -16 24 -45 -20 -91 -22 -23 -40 -44 -40 -46 0 -1 24 -2 53 -1 44 1 46 2
14 5 l-38 4 31 35 c57 65 25 143 -42 103z"/>
<path d="M3955 1179 c-8 -48 -4 -55 24 -37 38 23 79 -23 51 -57 -16 -20 -39
-19 -62 2 -15 14 -18 14 -18 1 0 -22 47 -41 70 -28 30 16 42 45 30 74 -9 25
-23 31 -62 28 -12 -1 -18 5 -18 18 0 16 7 20 35 20 19 0 35 5 35 10 0 6 -18
10 -39 10 -38 0 -39 -1 -46 -41z"/>
<path d="M3068 1181 c-10 -12 -13 -23 -8 -26 6 -4 10 -19 10 -35 0 -43 10 -60
34 -60 19 1 19 2 4 11 -12 6 -18 22 -18 44 0 22 6 38 18 44 15 9 15 10 0 11
-9 0 -18 7 -20 15 -2 13 -6 12 -20 -4z"/>
<path d="M1105 1147 c-35 -53 19 -116 70 -83 48 31 34 99 -22 104 -25 2 -35
-2 -48 -21z m70 -3 c20 -20 16 -53 -7 -68 -37 -23 -76 35 -48 70 16 18 35 18
55 -2z"/>
<path d="M1307 1163 c-11 -10 -8 -103 3 -103 6 0 10 25 10 55 0 56 -1 60 -13
48z"/>
<path d="M1430 1155 c-15 -18 -7 -19 20 -3 16 10 23 10 37 -4 18 -19 12 -24
-37 -30 -17 -2 -26 -10 -28 -25 -4 -27 30 -48 56 -35 9 5 23 7 30 5 15 -6 17
60 2 88 -13 23 -62 26 -80 4z m70 -53 c0 -14 -23 -32 -42 -32 -18 0 -25 20
-11 33 9 10 53 9 53 -1z"/>
<path d="M1620 1156 c-16 -20 -1 -41 35 -50 14 -4 25 -13 25 -21 0 -18 -31
-20 -48 -3 -6 6 -15 8 -19 4 -9 -8 24 -36 42 -36 6 0 20 6 30 14 25 18 13 44
-25 57 -16 6 -30 15 -30 19 0 16 20 21 41 9 17 -9 20 -8 17 3 -7 19 -52 22
-68 4z"/>
<path d="M1936 1154 c-43 -42 2 -116 58 -95 14 6 26 15 26 21 0 6 -9 6 -24 -2
-29 -13 -56 -5 -56 17 0 11 11 15 45 15 49 0 53 5 29 38 -18 26 -56 29 -78 6z
m63 -7 c14 -18 4 -27 -31 -27 -43 0 -35 36 8 39 6 1 17 -5 23 -12z"/>
<path d="M2120 1114 c0 -30 5 -54 10 -54 6 0 10 17 10 39 0 22 6 44 15 51 23
19 45 -5 45 -51 0 -22 5 -39 10 -39 6 0 10 20 10 44 0 78 55 71 63 -7 3 -31 4
-27 3 13 l-1 55 -82 1 -83 1 0 -53z"/>
<path d="M2720 1113 c0 -29 5 -53 10 -53 6 0 10 17 10 39 0 29 6 43 23 54 22
16 22 16 -10 14 -33 -2 -33 -2 -33 -54z"/>
<path d="M2880 1156 c-15 -19 -7 -20 20 -4 16 10 23 10 37 -4 18 -19 12 -24
-37 -30 -17 -2 -26 -10 -28 -25 -4 -28 30 -48 57 -34 10 6 21 7 25 3 4 -3 6
18 4 48 -3 53 -4 55 -34 58 -19 2 -36 -3 -44 -12z m70 -54 c0 -14 -23 -32 -42
-32 -11 0 -18 7 -18 20 0 16 7 20 30 20 17 0 30 -4 30 -8z"/>
<path d="M3230 1160 c-8 -5 -11 -12 -7 -16 3 -4 13 -1 22 6 18 15 45 6 45 -15
0 -10 -10 -15 -29 -15 -33 0 -54 -20 -45 -44 6 -15 26 -22 49 -16 6 2 18 2 28
2 14 -1 17 8 17 42 0 23 -5 47 -12 54 -14 14 -47 15 -68 2z m58 -67 c-4 -20
-35 -30 -50 -15 -15 15 0 32 28 32 19 0 25 -5 22 -17z"/>
</g>
</svg>
