<?xml version="1.0" standalone="no"?>
<!DOCTYPE svg PUBLIC "-//W3C//DTD SVG 20010904//EN"
 "http://www.w3.org/TR/2001/REC-SVG-20010904/DTD/svg10.dtd">
<svg version="1.0" xmlns="http://www.w3.org/2000/svg"
 width="483.000000pt" height="176.000000pt" viewBox="0 0 483.000000 176.000000"
 preserveAspectRatio="xMidYMid meet">

<g transform="translate(0.000000,176.000000) scale(0.100000,-0.100000)"
fill="#000000" stroke="none">
<path d="M4140 1712 c0 -34 -11 -52 -43 -69 l-31 -15 39 -14 c39 -13 54 -28
56 -54 0 -8 6 1 13 20 8 23 24 41 45 52 l34 17 -34 9 c-21 5 -42 21 -56 42
-19 27 -23 29 -23 12z"/>
<path d="M450 970 c0 -393 0 -400 20 -400 19 0 20 7 20 190 l0 190 243 0 c240
0 244 0 294 25 145 73 157 267 21 361 l-41 29 -279 3 -278 3 0 -401z m557 339
c115 -56 124 -215 16 -289 -36 -25 -37 -25 -282 -25 l-246 0 -3 168 -2 167
237 0 c220 0 240 -1 280 -21z"/>
<path d="M1340 970 c0 -392 0 -400 20 -400 19 0 20 8 22 188 l3 187 146 3 147
3 128 -153 c191 -224 197 -230 222 -226 19 3 2 26 -128 182 -83 98 -150 183
-150 187 0 5 26 9 58 9 68 0 124 24 169 70 42 43 56 88 51 160 -5 68 -33 116
-92 158 l-39 27 -279 3 -278 3 0 -401z m560 337 c112 -59 119 -214 13 -287
-36 -25 -37 -25 -282 -25 l-246 0 -3 155 c-1 85 0 160 2 167 4 10 57 13 239
13 225 0 236 -1 277 -23z"/>
<path d="M2587 1338 c-8 -18 -81 -188 -162 -378 -186 -435 -169 -390 -142
-390 19 0 29 14 58 83 l35 82 240 3 240 2 35 -85 c28 -72 37 -85 56 -85 13 0
23 1 23 3 0 2 -76 181 -169 398 -110 256 -174 395 -184 397 -10 2 -21 -9 -30
-30z m141 -301 c56 -133 102 -245 102 -249 0 -11 -418 -10 -424 0 -2 4 36 102
85 218 50 115 97 224 104 242 8 17 18 32 22 32 4 -1 54 -110 111 -243z"/>
<path d="M3240 1350 c0 -19 7 -20 160 -20 l160 0 0 -380 0 -380 25 0 25 0 0
380 0 380 160 0 c153 0 160 1 160 20 0 20 -7 20 -345 20 -338 0 -345 0 -345
-20z"/>
<path d="M4130 970 c0 -393 0 -400 20 -400 20 0 20 7 20 400 0 393 0 400 -20
400 -20 0 -20 -7 -20 -400z"/>
<path d="M3086 594 c-9 -23 -8 -24 19 -24 18 0 25 5 25 20 0 24 -35 28 -44 4z"/>
<path d="M385 328 c-2 -7 -6 -49 -7 -93 -3 -68 -6 -80 -21 -83 -10 -2 -27 4
-38 14 -25 23 -37 10 -14 -16 24 -27 70 -26 89 2 18 26 23 173 6 183 -6 3 -12
0 -15 -7z"/>
<path d="M623 328 c-13 -6 -23 -15 -23 -20 0 -13 13 -9 40 12 27 21 18 25 -17
8z"/>
<path d="M800 330 c0 -5 5 -10 10 -10 6 0 10 5 10 10 0 6 -4 10 -10 10 -5 0
-10 -4 -10 -10z"/>
<path d="M2360 235 c0 -63 4 -105 10 -105 6 0 10 20 10 45 l0 45 38 0 c45 0
72 24 72 63 0 35 -34 57 -87 57 l-43 0 0 -105z m104 63 c17 -27 -5 -52 -48
-56 l-36 -3 0 41 0 41 36 -3 c22 -2 42 -10 48 -20z"/>
<path d="M3678 323 c-28 -32 -30 -58 -7 -86 22 -29 56 -35 90 -17 15 9 19 7
19 -7 0 -28 -29 -63 -52 -63 -12 0 -30 7 -40 17 -26 23 -34 9 -9 -16 26 -26
62 -27 92 -2 34 27 40 125 9 164 -26 32 -78 37 -102 10z m86 -19 c9 -8 16 -22
16 -29 0 -21 -29 -45 -54 -45 -28 0 -46 18 -46 45 0 43 53 61 84 29z"/>
<path d="M3947 322 c-18 -19 -23 -42 -9 -42 4 0 13 9 20 20 15 24 57 27 66 4
13 -34 4 -56 -44 -106 -27 -28 -50 -55 -50 -60 0 -12 118 -10 125 2 4 6 -12
10 -39 10 -52 0 -56 5 -22 31 27 21 56 77 56 107 0 48 -70 70 -103 34z"/>
<path d="M4195 303 c-4 -21 -9 -46 -12 -55 -5 -20 17 -24 34 -7 15 15 64 7 77
-13 7 -11 7 -26 0 -45 -12 -37 -66 -45 -86 -14 -14 22 -28 28 -28 11 0 -21 41
-50 70 -50 60 0 90 67 54 119 -13 19 -24 22 -56 19 -37 -3 -39 -2 -36 22 3 22
8 25 51 28 62 4 51 22 -13 22 -49 0 -49 0 -55 -37z"/>
<path d="M3056 287 c-13 -14 -16 -22 -8 -25 7 -2 12 -24 12 -52 0 -50 17 -80
46 -80 18 0 18 10 0 24 -13 10 -20 44 -17 88 1 9 11 18 24 21 21 3 21 4 2 12
-11 5 -24 14 -30 20 -7 9 -15 7 -29 -8z"/>
<path d="M552 260 c-29 -27 -29 -83 -2 -110 45 -45 120 -11 120 55 0 66 -70
99 -118 55z m92 -32 c7 -18 6 -35 -2 -53 -21 -46 -92 -24 -92 30 0 56 76 75
94 23z"/>
<path d="M800 205 c0 -43 4 -75 10 -75 6 0 10 32 10 75 0 43 -4 75 -10 75 -6
0 -10 -32 -10 -75z"/>
<path d="M965 260 c-16 -18 -16 -20 -2 -20 10 0 17 5 17 10 0 14 43 13 58 -2
20 -20 14 -28 -21 -28 -44 0 -70 -20 -65 -50 5 -34 31 -47 67 -33 21 8 32 8
40 0 8 -8 11 6 11 50 0 70 -15 93 -59 93 -15 0 -36 -9 -46 -20z m85 -66 c0
-20 -24 -44 -45 -44 -27 0 -39 14 -31 35 5 14 76 22 76 9z"/>
<path d="M1206 261 c-24 -26 -10 -49 36 -61 29 -8 38 -16 36 -28 -4 -24 -46
-27 -69 -6 -23 20 -26 2 -3 -20 23 -23 70 -20 88 6 20 28 8 49 -36 64 -40 13
-51 44 -16 44 13 0 29 -5 36 -12 6 -6 15 -8 19 -4 11 11 -26 36 -52 36 -12 0
-29 -8 -39 -19z"/>
<path d="M1612 264 c-17 -12 -22 -25 -22 -59 0 -34 5 -47 22 -59 31 -22 71
-20 93 4 16 17 16 20 2 20 -9 0 -19 -4 -22 -10 -9 -14 -48 -13 -63 2 -26 26
-13 37 46 40 51 3 57 5 54 23 -9 51 -65 71 -110 39z m76 -16 c21 -21 13 -28
-33 -28 -25 0 -45 4 -45 8 0 15 24 32 45 32 12 0 26 -5 33 -12z"/>
<path d="M1850 206 c0 -49 4 -75 10 -71 6 3 10 28 10 54 0 52 16 75 47 69 14
-2 19 -16 23 -61 6 -71 24 -79 28 -12 4 55 15 75 43 75 25 0 39 -30 39 -85 0
-28 4 -44 10 -40 16 10 12 98 -6 123 -17 24 -44 28 -76 11 -14 -8 -23 -8 -31
0 -14 14 -54 14 -62 1 -5 -8 -11 -7 -21 1 -12 10 -14 0 -14 -65z"/>
<path d="M2617 273 c-11 -10 -8 -131 3 -138 6 -4 10 12 10 39 0 46 18 77 51
88 8 3 10 9 6 14 -4 4 -17 2 -29 -5 -15 -9 -23 -10 -28 -2 -3 6 -9 8 -13 4z"/>
<path d="M2824 266 c-10 -8 -16 -18 -12 -22 4 -4 14 -1 22 5 20 17 60 10 64
-11 3 -14 -4 -18 -32 -18 -54 0 -86 -46 -54 -78 15 -15 64 -16 73 -2 5 8 11 7
21 -1 12 -10 14 -1 14 54 0 55 -3 68 -19 77 -27 14 -54 13 -77 -4z m76 -79 c0
-20 -21 -37 -46 -37 -27 0 -36 12 -28 34 8 20 74 23 74 3z"/>
<path d="M3264 266 c-10 -8 -16 -18 -12 -22 4 -4 14 -1 22 5 20 17 60 10 64
-11 3 -14 -3 -18 -27 -18 -29 0 -71 -29 -71 -49 0 -25 33 -40 80 -38 l50 2 0
50 c0 30 -6 60 -16 73 -18 25 -60 29 -90 8z m79 -73 c12 -11 -25 -43 -50 -43
-22 0 -33 27 -16 43 8 9 58 9 66 0z"/>
</g>
</svg>
